<svg xmlns="http://www.w3.org/2000/svg" viewBox="0 0 800 900" width="800" height="900">
<rect width="800" height="900" fill="#2a2720"/>

<!-- wnęka tło -->
<rect x="80" y="60" width="640" height="800" rx="4" fill="#1e1c19"/>
<!-- ściany boczne wnęki -->
<rect x="80" y="60" width="30" height="800" fill="#3a3529"/>
<rect x="690" y="60" width="30" height="800" fill="#3a3529"/>
<!-- sufit i podłoga -->
<rect x="80" y="60" width="640" height="26" fill="#3a3529"/>
<rect x="80" y="834" width="640" height="26" fill="#3a3529"/>

<!-- REGAŁ — korpus -->
<!-- Bok lewy -->
<rect x="110" y="86" width="22" height="748" fill="#c4a882" stroke="#9a7a45" stroke-width="1.5"/>
<!-- Bok prawy -->
<rect x="668" y="86" width="22" height="748" fill="#c4a882" stroke="#9a7a45" stroke-width="1.5"/>
<!-- Wieniec górny -->
<rect x="110" y="86" width="580" height="22" fill="#c4a882" stroke="#9a7a45" stroke-width="1.5"/>
<!-- Dno -->
<rect x="110" y="812" width="580" height="22" fill="#c4a882" stroke="#9a7a45" stroke-width="1.5"/>
<!-- Cokół -->
<rect x="110" y="792" width="580" height="20" fill="#b8895a" stroke="#9a7a45" stroke-width="1"/>

<!-- separator pionowy środkowy -->
<rect x="391" y="108" width="18" height="684" fill="#c4a882" stroke="#9a7a45" stroke-width="1"/>

<!-- === PÓŁKI — lewa sekcja === -->
<rect x="132" y="188" width="241" height="14" fill="#ddd0bc" stroke="#9a7a45" stroke-width="1"/>
<rect x="132" y="300" width="241" height="14" fill="#ddd0bc" stroke="#9a7a45" stroke-width="1"/>
<rect x="132" y="412" width="241" height="14" fill="#ddd0bc" stroke="#9a7a45" stroke-width="1"/>
<rect x="132" y="524" width="241" height="14" fill="#ddd0bc" stroke="#9a7a45" stroke-width="1"/>
<rect x="132" y="636" width="241" height="14" fill="#ddd0bc" stroke="#9a7a45" stroke-width="1"/>

<!-- === PÓŁKI — prawa sekcja === -->
<rect x="409" y="188" width="241" height="14" fill="#ddd0bc" stroke="#9a7a45" stroke-width="1"/>
<rect x="409" y="300" width="241" height="14" fill="#ddd0bc" stroke="#9a7a45" stroke-width="1"/>
<rect x="409" y="412" width="241" height="14" fill="#ddd0bc" stroke="#9a7a45" stroke-width="1"/>
<rect x="409" y="524" width="241" height="14" fill="#ddd0bc" stroke="#9a7a45" stroke-width="1"/>
<rect x="409" y="636" width="241" height="14" fill="#ddd0bc" stroke="#9a7a45" stroke-width="1"/>

<!-- === KSIĄŻKI — rząd 1 lewa (110–188px) === -->
<rect x="136" y="114" width="18" height="74" rx="1" fill="#8B4513"/>
<rect x="156" y="118" width="14" height="70" rx="1" fill="#2E4A6B"/>
<rect x="172" y="112" width="20" height="76" rx="1" fill="#5C4A1E"/>
<rect x="194" y="116" width="15" height="72" rx="1" fill="#4A7A4A"/>
<rect x="211" y="114" width="22" height="74" rx="1" fill="#7A3B3B"/>
<rect x="235" y="118" width="16" height="70" rx="1" fill="#3B5C7A"/>
<rect x="253" y="112" width="19" height="76" rx="1" fill="#6B5C2E"/>
<rect x="274" y="115" width="14" height="73" rx="1" fill="#4A4A7A"/>
<rect x="290" y="113" width="21" height="75" rx="1" fill="#7A5C3B"/>
<rect x="313" y="117" width="17" height="71" rx="1" fill="#3B7A5C"/>
<rect x="332" y="112" width="16" height="76" rx="1" fill="#5C3B7A"/>
<rect x="350" y="116" width="20" height="72" rx="1" fill="#7A6B3B"/>
<!-- grzbiety książek — poziome linie -->
<line x1="136" y1="130" x2="154" y2="130" stroke="#f0e8d8" stroke-width="0.5" opacity="0.4"/>
<line x1="156" y1="134" x2="170" y2="134" stroke="#f0e8d8" stroke-width="0.5" opacity="0.4"/>
<line x1="194" y1="128" x2="209" y2="128" stroke="#f0e8d8" stroke-width="0.5" opacity="0.4"/>
<line x1="211" y1="132" x2="233" y2="132" stroke="#f0e8d8" stroke-width="0.5" opacity="0.4"/>

<!-- === KSIĄŻKI — rząd 2 lewa (202–300px) === -->
<rect x="136" y="230" width="16" height="70" rx="1" fill="#4A7A3B"/>
<rect x="154" y="226" width="22" height="74" rx="1" fill="#6B3B5C"/>
<rect x="178" y="228" width="15" height="72" rx="1" fill="#3B5C8B"/>
<rect x="195" y="224" width="20" height="76" rx="1" fill="#8B6B3B"/>
<rect x="217" y="228" width="17" height="72" rx="1" fill="#5C8B5C"/>
<rect x="236" y="226" width="21" height="74" rx="1" fill="#3B3B6B"/>
<rect x="259" y="230" width="14" height="70" rx="1" fill="#7A4A2E"/>
<rect x="275" y="224" width="19" height="76" rx="1" fill="#4A6B4A"/>
<rect x="296" y="228" width="16" height="72" rx="1" fill="#6B4A7A"/>
<rect x="314" y="226" width="22" height="74" rx="1" fill="#3B6B5C"/>
<rect x="338" y="230" width="15" height="70" rx="1" fill="#8B5C3B"/>
<rect x="355" y="226" width="18" height="74" rx="1" fill="#4A4A8B"/>

<!-- === KSIĄŻKI — rząd 3 lewa (314–412px) === -->
<rect x="136" y="342" width="20" height="70" rx="1" fill="#5C3B8B"/>
<rect x="158" y="338" width="16" height="74" rx="1" fill="#3B7A3B"/>
<rect x="176" y="342" width="22" height="70" rx="1" fill="#8B4A2E"/>
<rect x="200" y="338" width="15" height="74" rx="1" fill="#2E4A7A"/>
<rect x="217" y="340" width="18" height="72" rx="1" fill="#6B5C3B"/>
<rect x="237" y="342" width="21" height="70" rx="1" fill="#4A7A6B"/>
<rect x="260" y="338" width="16" height="74" rx="1" fill="#7A3B6B"/>
<rect x="278" y="340" width="19" height="72" rx="1" fill="#3B5C4A"/>
<rect x="299" y="342" width="14" height="70" rx="1" fill="#8B7A3B"/>
<rect x="315" y="338" width="22" height="74" rx="1" fill="#4A3B7A"/>
<rect x="339" y="342" width="17" height="70" rx="1" fill="#6B3B3B"/>
<rect x="358" y="340" width="15" height="72" rx="1" fill="#3B6B7A"/>

<!-- === KSIĄŻKI — rząd 4 lewa (426–524px) — mniej gęsto, kilka leżących === -->
<rect x="136" y="454" width="18" height="70" rx="1" fill="#7A5C2E"/>
<rect x="156" y="450" width="22" height="74" rx="1" fill="#3B4A7A"/>
<rect x="180" y="454" width="16" height="70" rx="1" fill="#5C7A3B"/>
<!-- leżące książki -->
<rect x="200" y="500" width="72" height="16" rx="1" fill="#8B6B4A"/>
<rect x="200" y="484" width="68" height="16" rx="1" fill="#6B8B6B"/>
<rect x="200" y="468" width="74" height="16" rx="1" fill="#4A6B8B"/>
<rect x="200" y="452" width="70" height="16" rx="1" fill="#7A4A5C"/>
<!-- stojące dalej -->
<rect x="276" y="454" width="20" height="70" rx="1" fill="#5C3B5C"/>
<rect x="298" y="450" width="16" height="74" rx="1" fill="#3B7A5C"/>
<rect x="316" y="454" width="22" height="70" rx="1" fill="#8B3B3B"/>
<rect x="340" y="452" width="15" height="72" rx="1" fill="#4A5C8B"/>
<rect x="357" y="454" width="18" height="70" rx="1" fill="#6B5C3B"/>

<!-- === KSIĄŻKI — rząd 5 lewa (538–636px) === -->
<rect x="136" y="566" width="21" height="70" rx="1" fill="#3B8B5C"/>
<rect x="159" y="562" width="16" height="74" rx="1" fill="#7A3B7A"/>
<rect x="177" y="566" width="19" height="70" rx="1" fill="#5C5C3B"/>
<rect x="198" y="562" width="22" height="74" rx="1" fill="#3B3B8B"/>
<rect x="222" y="566" width="15" height="70" rx="1" fill="#8B5C4A"/>
<rect x="239" y="564" width="20" height="72" rx="1" fill="#4A8B4A"/>
<rect x="261" y="566" width="17" height="70" rx="1" fill="#6B4A3B"/>
<rect x="280" y="562" width="21" height="74" rx="1" fill="#3B5C6B"/>
<rect x="303" y="566" width="16" height="70" rx="1" fill="#7A6B4A"/>
<rect x="321" y="564" width="22" height="72" rx="1" fill="#4A3B6B"/>
<rect x="345" y="566" width="18" height="70" rx="1" fill="#6B3B4A"/>

<!-- === KSIĄŻKI — rząd 6 lewa (650–792px) — ozdoby + książki === -->
<rect x="136" y="678" width="20" height="114" rx="1" fill="#5C4A3B"/>
<rect x="158" y="684" width="16" height="108" rx="1" fill="#3B6B8B"/>
<rect x="176" y="678" width="22" height="114" rx="1" fill="#8B4A3B"/>
<!-- doniczka/ozdoba -->
<ellipse cx="220" cy="752" rx="18" ry="22" fill="#7A5C3B" stroke="#9a7a45" stroke-width="1"/>
<ellipse cx="220" cy="732" rx="14" ry="8" fill="#4A7A3B"/>
<rect x="215" y="722" width="10" height="10" fill="#4A7A3B"/>
<rect x="208" y="774" width="24" height="18" rx="2" fill="#8B6B4A" stroke="#9a7a45" stroke-width="0.8"/>
<!-- więcej książek -->
<rect x="248" y="684" width="18" height="108" rx="1" fill="#6B3B6B"/>
<rect x="268" y="678" width="21" height="114" rx="1" fill="#3B8B6B"/>
<rect x="291" y="682" width="15" height="110" rx="1" fill="#7A6B3B"/>
<rect x="308" y="678" width="20" height="114" rx="1" fill="#4A4A8B"/>
<rect x="330" y="684" width="16" height="108" rx="1" fill="#8B5C3B"/>
<!-- ramka/foto stojąca -->
<rect x="350" y="730" width="20" height="26" rx="1" fill="#c4a882" stroke="#9a7a45" stroke-width="1"/>
<rect x="352" y="732" width="16" height="20" rx="1" fill="#3B5C7A" opacity="0.6"/>

<!-- === PRAWA SEKCJA — te same rzędy ale różne kolory i układ === -->
<!-- rząd 1 prawa -->
<rect x="413" y="114" width="22" height="74" rx="1" fill="#3B6B4A"/>
<rect x="437" y="116" width="16" height="72" rx="1" fill="#7A4A8B"/>
<rect x="455" y="112" width="20" height="76" rx="1" fill="#4A5C2E"/>
<rect x="477" y="118" width="15" height="70" rx="1" fill="#8B3B4A"/>
<rect x="494" y="114" width="21" height="74" rx="1" fill="#3B4A6B"/>
<rect x="517" y="116" width="17" height="72" rx="1" fill="#6B7A3B"/>
<rect x="536" y="112" width="22" height="76" rx="1" fill="#4A3B8B"/>
<rect x="560" y="118" width="16" height="70" rx="1" fill="#8B6B3B"/>
<rect x="578" y="114" width="19" height="74" rx="1" fill="#3B7A7A"/>
<rect x="599" y="116" width="21" height="72" rx="1" fill="#6B3B3B"/>
<rect x="622" y="112" width="14" height="76" rx="1" fill="#5C8B4A"/>
<rect x="638" y="116" width="20" height="72" rx="1" fill="#3B3B6B"/>

<!-- rząd 2 prawa -->
<rect x="413" y="226" width="19" height="74" rx="1" fill="#7A5C3B"/>
<rect x="434" y="230" width="22" height="70" rx="1" fill="#3B6B6B"/>
<rect x="458" y="226" width="16" height="74" rx="1" fill="#8B4A6B"/>
<rect x="476" y="228" width="20" height="72" rx="1" fill="#4A7A4A"/>
<rect x="498" y="226" width="18" height="74" rx="1" fill="#6B4A3B"/>
<rect x="518" y="230" width="21" height="70" rx="1" fill="#3B3B7A"/>
<rect x="541" y="226" width="15" height="74" rx="1" fill="#7A7A3B"/>
<rect x="558" y="228" width="22" height="72" rx="1" fill="#4A3B5C"/>
<rect x="582" y="226" width="16" height="74" rx="1" fill="#3B7A4A"/>
<rect x="600" y="230" width="20" height="70" rx="1" fill="#8B3B6B"/>
<rect x="622" y="228" width="17" height="72" rx="1" fill="#5C6B3B"/>
<rect x="641" y="226" width="17" height="74" rx="1" fill="#3B4A8B"/>

<!-- rząd 3 prawa -->
<rect x="413" y="338" width="21" height="74" rx="1" fill="#6B3B4A"/>
<rect x="436" y="342" width="16" height="70" rx="1" fill="#3B8B3B"/>
<rect x="454" y="338" width="22" height="74" rx="1" fill="#7A4A2E"/>
<rect x="478" y="340" width="18" height="72" rx="1" fill="#4A4A7A"/>
<!-- leżące książki na środku -->
<rect x="500" y="378" width="66" height="14" rx="1" fill="#8B7A4A"/>
<rect x="500" y="364" width="60" height="14" rx="1" fill="#5C4A8B"/>
<rect x="500" y="350" width="64" height="14" rx="1" fill="#3B6B3B"/>
<rect x="500" y="338" width="62" height="12" rx="1" fill="#7A3B5C"/>
<rect x="570" y="342" width="20" height="70" rx="1" fill="#4A8B6B"/>
<rect x="592" y="338" width="16" height="74" rx="1" fill="#6B6B3B"/>
<rect x="610" y="342" width="22" height="70" rx="1" fill="#3B3B8B"/>
<rect x="634" y="340" width="14" height="72" rx="1" fill="#8B5C3B"/>

<!-- rząd 4 prawa -->
<rect x="413" y="452" width="18" height="72" rx="1" fill="#4A6B8B"/>
<rect x="433" y="450" width="22" height="74" rx="1" fill="#7A3B3B"/>
<rect x="457" y="454" width="16" height="70" rx="1" fill="#3B7A6B"/>
<rect x="475" y="450" width="20" height="74" rx="1" fill="#6B5C3B"/>
<rect x="497" y="452" width="21" height="72" rx="1" fill="#4A3B6B"/>
<rect x="520" y="454" width="15" height="70" rx="1" fill="#8B6B4A"/>
<rect x="537" y="450" width="22" height="74" rx="1" fill="#3B5C3B"/>
<!-- ozdoba wazon -->
<rect x="562" y="492" width="20" height="32" rx="3" fill="#c4a882" stroke="#9a7a45" stroke-width="1"/>
<ellipse cx="572" cy="492" rx="13" ry="6" fill="#b8895a" stroke="#9a7a45" stroke-width="0.8"/>
<line x1="568" y1="468" x2="572" y2="492" stroke="#4A7A3B" stroke-width="2"/>
<line x1="572" y1="468" x2="576" y2="492" stroke="#4A7A3B" stroke-width="2"/>
<line x1="564" y1="476" x2="572" y2="492" stroke="#6B9B4A" stroke-width="1.5"/>
<rect x="590" y="454" width="19" height="70" rx="1" fill="#7A4A7A"/>
<rect x="611" y="450" width="22" height="74" rx="1" fill="#3B6B4A"/>
<rect x="635" y="452" width="13" height="72" rx="1" fill="#8B3B3B"/>

<!-- rząd 5 prawa -->
<rect x="413" y="562" width="20" height="74" rx="1" fill="#5C3B7A"/>
<rect x="435" y="566" width="16" height="70" rx="1" fill="#3B8B4A"/>
<rect x="453" y="562" width="22" height="74" rx="1" fill="#7A6B3B"/>
<rect x="477" y="564" width="18" height="72" rx="1" fill="#4A4A8B"/>
<rect x="497" y="562" width="21" height="74" rx="1" fill="#8B4A3B"/>
<rect x="520" y="566" width="15" height="70" rx="1" fill="#3B6B7A"/>
<rect x="537" y="564" width="20" height="72" rx="1" fill="#6B3B5C"/>
<rect x="559" y="562" width="22" height="74" rx="1" fill="#4A7A3B"/>
<rect x="583" y="566" width="16" height="70" rx="1" fill="#7A4A4A"/>
<rect x="601" y="562" width="19" height="74" rx="1" fill="#3B4A7A"/>
<rect x="622" y="564" width="21" height="72" rx="1" fill="#6B6B4A"/>
<rect x="645" y="566" width="13" height="70" rx="1" fill="#8B3B7A"/>

<!-- rząd 6 prawa — ozdoby i książki -->
<rect x="413" y="680" width="22" height="112" rx="1" fill="#3B5C8B"/>
<rect x="437" y="684" width="16" height="108" rx="1" fill="#6B3B3B"/>
<rect x="455" y="678" width="20" height="114" rx="1" fill="#4A8B5C"/>
<!-- globus/kula dekoracyjna -->
<circle cx="498" cy="738" r="26" fill="none" stroke="#c4a882" stroke-width="1.5"/>
<circle cx="498" cy="738" r="24" fill="#2E4A6B" opacity="0.7"/>
<ellipse cx="498" cy="738" rx="24" ry="8" fill="none" stroke="#c4a882" stroke-width="0.8" opacity="0.6"/>
<line x1="498" y1="714" x2="498" y2="762" stroke="#c4a882" stroke-width="0.8" opacity="0.6"/>
<rect x="490" y="762" width="16" height="5" rx="1" fill="#b8895a"/>
<rect x="493" y="767" width="10" height="25" rx="1" fill="#b8895a"/>
<!-- więcej książek -->
<rect x="528" y="682" width="19" height="110" rx="1" fill="#7A3B5C"/>
<rect x="549" y="678" width="22" height="114" rx="1" fill="#3B7A3B"/>
<rect x="573" y="684" width="16" height="108" rx="1" fill="#8B6B3B"/>
<rect x="591" y="680" width="21" height="112" rx="1" fill="#4A3B8B"/>
<rect x="614" y="682" width="18" height="110" rx="1" fill="#6B5C4A"/>

<!-- LED górny -->
<rect x="110" y="86" width="580" height="5" rx="2" fill="#f5f0e0" opacity="0.5"/>

</svg>
